<svg width="20" height="20" viewBox="0 0 20 20" fill="none" xmlns="http://www.w3.org/2000/svg">
<path d="M14.1667 16.666C14.1667 15.2853 12.3012 14.166 10 14.166C7.69881 14.166 5.83333 15.2853 5.83333 16.666M17.5 14.1663C17.5 13.1412 16.4716 12.2601 15 11.8743M2.5 14.1663C2.5 13.1412 3.52841 12.2601 5 11.8743M15 8.52944C15.5115 8.07167 15.8333 7.40643 15.8333 6.66602C15.8333 5.2853 14.714 4.16602 13.3333 4.16602C12.693 4.16602 12.109 4.40673 11.6667 4.80259M5 8.52944C4.48854 8.07167 4.16667 7.40643 4.16667 6.66602C4.16667 5.2853 5.28595 4.16602 6.66667 4.16602C7.30696 4.16602 7.89104 4.40673 8.33333 4.80259M10 11.666C8.61929 11.666 7.5 10.5467 7.5 9.16602C7.5 7.7853 8.61929 6.66602 10 6.66602C11.3807 6.66602 12.5 7.7853 12.5 9.16602C12.5 10.5467 11.3807 11.666 10 11.666Z" stroke="currentColor" stroke-width="1.5" stroke-linecap="round" stroke-linejoin="round"/>
</svg>
