<svg width="20" height="20" viewBox="0 0 20 20" fill="none" xmlns="http://www.w3.org/2000/svg">
<path d="M11.6668 8.33333V14.1667M8.3335 8.33333V14.1667M5.00016 5V14.8333C5.00016 15.7668 5.00016 16.2331 5.18182 16.5897C5.34161 16.9033 5.59639 17.1587 5.90999 17.3185C6.26616 17.5 6.73266 17.5 7.66425 17.5H12.3361C13.2677 17.5 13.7335 17.5 14.0897 17.3185C14.4033 17.1587 14.6589 16.9033 14.8187 16.5897C15.0002 16.2335 15.0002 15.7675 15.0002 14.8359V5M5.00016 5H6.66683M5.00016 5H3.3335M6.66683 5H13.3335M6.66683 5C6.66683 4.22343 6.66683 3.83534 6.7937 3.52905C6.96285 3.12067 7.2871 2.79602 7.69548 2.62687C8.00176 2.5 8.39026 2.5 9.16683 2.5H10.8335C11.6101 2.5 11.9983 2.5 12.3046 2.62687C12.713 2.79602 13.0374 3.12067 13.2065 3.52905C13.3334 3.83534 13.3335 4.22343 13.3335 5M13.3335 5H15.0002M15.0002 5H16.6668" stroke="currentColor" stroke-width="1.5" stroke-linecap="round" stroke-linejoin="round"/>
</svg>
