<svg width="20" height="20" viewBox="0 0 20 20" fill="none" xmlns="http://www.w3.org/2000/svg">
<path d="M3.33325 6.6665H16.6666M3.33325 6.6665V14C3.33325 14.9334 3.33325 15.3999 3.51491 15.7564C3.6747 16.07 3.92948 16.3252 4.24308 16.485C4.59925 16.6665 5.06575 16.6665 5.99734 16.6665H14.0025C14.9341 16.6665 15.3999 16.6665 15.7561 16.485C16.0697 16.3252 16.3253 16.07 16.4851 15.7564C16.6666 15.4002 16.6666 14.9344 16.6666 14.0028V6.6665M3.33325 6.6665V6C3.33325 5.06658 3.33325 4.59952 3.51491 4.243C3.6747 3.9294 3.92948 3.67462 4.24308 3.51483C4.5996 3.33317 5.06666 3.33317 6.00008 3.33317H6.66659M16.6666 6.6665V5.99726C16.6666 5.06567 16.6666 4.59917 16.4851 4.243C16.3253 3.9294 16.0697 3.67462 15.7561 3.51483C15.3996 3.33317 14.9335 3.33317 14.0001 3.33317H13.3333M6.66659 3.33317H13.3333M6.66659 3.33317V1.6665M13.3333 3.33317V1.6665M12.4999 9.99984L9.16659 13.3332L7.49992 11.6665" stroke="#5D5FEF" stroke-width="1.5" stroke-linecap="round" stroke-linejoin="round"/>
</svg>
