<svg width="16" height="16" viewBox="0 0 16 16" fill="none" xmlns="http://www.w3.org/2000/svg">
<path d="M2.66675 5.33301H13.3334M2.66675 5.33301V11.1998C2.66675 11.9465 2.66675 12.3197 2.81207 12.6049C2.9399 12.8558 3.14373 13.06 3.39461 13.1878C3.67955 13.333 4.05274 13.333 4.79802 13.333H11.2021C11.9474 13.333 12.3201 13.333 12.605 13.1878C12.8559 13.06 13.0604 12.8558 13.1882 12.6049C13.3334 12.32 13.3334 11.9473 13.3334 11.2021V5.33301M2.66675 5.33301V4.7998C2.66675 4.05307 2.66675 3.67942 2.81207 3.39421C2.9399 3.14332 3.14373 2.9395 3.39461 2.81167C3.67983 2.66634 4.05347 2.66634 4.80021 2.66634H5.33341M13.3334 5.33301V4.79761C13.3334 4.05234 13.3334 3.67914 13.1882 3.39421C13.0604 3.14332 12.8559 2.9395 12.605 2.81167C12.3198 2.66634 11.9469 2.66634 11.2002 2.66634H10.6667M10.6667 1.33301V2.66634M10.6667 2.66634H5.33341M5.33341 1.33301V2.66634" stroke="#464C53" stroke-width="1.5" stroke-linecap="round" stroke-linejoin="round"/>
</svg>
