<svg width="current" height="current" viewBox="0 0 24 24" fill="none" xmlns="http://www.w3.org/2000/svg">
<circle cx="12" cy="12" r="6" fill="white"/>
<path fill-rule="evenodd" clip-rule="evenodd" d="M12 21C7.02944 21 3 16.9706 3 12C3 7.02944 7.02944 3 12 3C16.9706 3 21 7.02944 21 12C21 16.9706 16.9706 21 12 21ZM9.70711 8.29289C9.31658 7.90237 8.68342 7.90237 8.29289 8.29289C7.90237 8.68342 7.90237 9.31658 8.29289 9.70711L10.5857 11.9999L8.29289 14.2928C7.90237 14.6833 7.90237 15.3165 8.29289 15.707C8.68342 16.0975 9.31658 16.0975 9.70711 15.707L11.9999 13.4142L14.2928 15.707C14.6833 16.0975 15.3165 16.0975 15.707 15.707C16.0975 15.3165 16.0975 14.6833 15.707 14.2928L13.4142 11.9999L15.707 9.70711C16.0975 9.31658 16.0975 8.68342 15.707 8.29289C15.3165 7.90237 14.6833 7.90237 14.2928 8.29289L11.9999 10.5857L9.70711 8.29289Z" fill="currentColor"/>
</svg>
