<svg width="219" height="38" viewBox="0 0 219 38" fill="none" xmlns="http://www.w3.org/2000/svg">
<path d="M148.929 19.6616C148.825 19.6616 148.74 19.7437 148.736 19.8476L148.289 31.528C148.167 34.7283 145.537 37.2595 142.334 37.2595C138.9 37.2595 136.177 34.3649 136.386 30.9373L137.713 9.18165C137.751 8.55686 137.77 8.24447 137.804 7.97776C138.292 4.18942 141.391 1.27455 145.202 1.01806C145.47 1 145.783 1 146.409 1C146.941 1 147.207 1 147.444 1.01408C150.78 1.21228 153.641 3.46354 154.619 6.65942C154.689 6.88646 154.751 7.14489 154.876 7.66175L157.684 19.2579C157.714 19.3813 157.825 19.4682 157.952 19.4682C158.079 19.4682 158.189 19.3813 158.219 19.2579L161.023 7.67822C161.152 7.14573 161.216 6.87948 161.288 6.64571C162.269 3.46162 165.12 1.21849 168.445 1.01494C168.689 1 168.963 1 169.511 1C170.157 1 170.48 1 170.756 1.0192C174.558 1.28307 177.646 4.19222 178.136 7.97164C178.172 8.24663 178.191 8.56888 178.229 9.21338L179.526 30.9408C179.731 34.3679 177.006 37.2595 173.573 37.2595C170.368 37.2595 167.736 34.7265 167.614 31.524L167.168 19.874C167.164 19.7554 167.066 19.6616 166.948 19.6616C166.846 19.6616 166.758 19.7304 166.733 19.8286L163.426 32.9867C162.794 35.4986 160.536 37.2595 157.946 37.2595C155.361 37.2595 153.106 35.5058 152.469 33.0008L149.117 19.8074C149.095 19.7216 149.018 19.6616 148.929 19.6616Z" fill="#33363D"/>
<path d="M131.541 31.4891C131.541 34.6761 128.957 37.2595 125.77 37.2595C122.583 37.2595 120 34.6761 120 31.4891V6.7704C120 3.5835 122.583 1 125.77 1C128.957 1 131.541 3.5835 131.541 6.7704V31.4891Z" fill="#33363D"/>
<path d="M12.9291 19.6616C12.8252 19.6616 12.7398 19.7437 12.7359 19.8476L12.289 31.528C12.1666 34.7283 9.53663 37.2595 6.334 37.2595C2.90002 37.2595 0.176585 34.3649 0.385684 30.9373L1.71287 9.18164C1.75099 8.55686 1.77004 8.24446 1.8044 7.97776C2.29248 4.18942 5.39058 1.27455 9.20162 1.01806C9.46992 1 9.78289 1 10.4088 1C10.9406 1 11.2065 1 11.4435 1.01408C14.7798 1.21228 17.6412 3.46354 18.6191 6.65942C18.6885 6.88646 18.7511 7.14489 18.8763 7.66175L21.6843 19.2579C21.7141 19.3813 21.8246 19.4682 21.9516 19.4682C22.0785 19.4682 22.189 19.3813 22.2189 19.2579L25.0229 7.67822C25.1518 7.14573 25.2163 6.87948 25.2883 6.6457C26.2687 3.46162 29.1199 1.21849 32.4453 1.01494C32.6894 1 32.9634 1 33.5112 1C34.1569 1 34.4797 1 34.7563 1.0192C38.5582 1.28307 41.6462 4.19222 42.1361 7.97164C42.1717 8.24663 42.1909 8.56888 42.2294 9.21338L43.526 30.9408C43.7306 34.3679 41.0064 37.2595 37.5731 37.2595C34.3683 37.2595 31.7365 34.7265 31.614 31.524L31.1683 19.874C31.1638 19.7554 31.0663 19.6616 30.9476 19.6616C30.8464 19.6616 30.7582 19.7304 30.7335 19.8286L27.4256 32.9867C26.7942 35.4986 24.5358 37.2595 21.9457 37.2595C19.3611 37.2595 17.106 35.5058 16.4694 33.0008L13.1166 19.8074C13.0948 19.7216 13.0176 19.6616 12.9291 19.6616Z" fill="#33363D"/>
<path d="M111.634 1C114.749 1 117.275 3.52566 117.275 6.64122C117.275 9.75678 114.749 12.2824 111.634 12.2824H108.06C107.919 12.2824 107.848 12.2824 107.789 12.2896C107.331 12.3444 106.97 12.7055 106.915 13.1634C106.908 13.2227 106.908 13.2933 106.908 13.4343V31.4891C106.908 34.6761 104.324 37.2595 101.137 37.2595C97.9506 37.2595 95.3671 34.6761 95.3671 31.4891V13.4343C95.3671 13.2933 95.3671 13.2227 95.36 13.1634C95.3051 12.7055 94.9441 12.3444 94.4861 12.2896C94.4268 12.2824 94.3563 12.2824 94.2152 12.2824H90.6412C87.5257 12.2824 85 9.75678 85 6.64122C85 3.52566 87.5257 1 90.6412 1H111.634Z" fill="#33363D"/>
<path d="M60.25 4.37774L59.5514 1.46022L60.25 4.37774ZM62.35 3.87487L61.6514 0.95735L62.35 3.87487ZM64.45 3.67886L64.6081 0.683028L64.45 3.67886ZM76.7178 6.03895L74.9207 8.44116L76.7178 6.03895ZM78.3322 7.2467L80.1293 4.84449L78.3322 7.2467ZM79.1291 8.91707L76.1293 8.88797L79.1291 8.91707ZM78.4768 17.3666L81.379 16.6071L78.4768 17.3666ZM79.0263 19.4666L76.124 20.2261L79.0263 19.4666ZM78.7068 29.6414L76.5054 27.6033L78.7068 29.6414ZM77.3647 31.0911L79.5661 33.1292L77.3647 31.0911ZM75.7619 31.8514L75.6479 28.8535L75.7619 31.8514ZM73.8986 31.9222L73.7845 28.9244L73.8986 31.9222ZM71.9169 32.4295L70.6873 29.693L71.9169 32.4295ZM70.8669 32.9013L69.6373 30.1648L70.8669 32.9013ZM69.8169 33.3731L71.0465 36.1095L69.8169 33.3731ZM67.7169 33.8055L67.6044 36.8034L67.7169 33.8055ZM66.6669 33.7661L66.5544 36.764L66.6669 33.7661ZM65.6169 33.7267L65.7293 30.7288L65.6169 33.7267ZM63.5169 33.2598L64.6481 30.4813L63.5169 33.2598ZM61.4169 32.4049L60.2857 35.1834L61.4169 32.4049ZM59.3169 32.1708L58.7734 29.2204L59.3169 32.1708ZM57.2169 32.5576L57.7604 35.508L57.2169 32.5576ZM55.1447 32.5845L54.6624 35.5455L55.1447 32.5845ZM53.1002 32.2516L53.5825 29.2906L53.1002 32.2516ZM51.483 31.0764L48.8991 32.6007L51.483 31.0764ZM50.2928 29.059L52.8767 27.5347L50.2928 29.059ZM50.3227 25.9503L53.1981 26.806L50.3227 25.9503ZM50.6351 24.9003L47.7597 24.0447L50.6351 24.9003ZM50.5156 20.7003L47.5434 21.1079L50.5156 20.7003ZM50.1346 17.5503L47.1535 17.8867L50.1346 17.5503ZM50.7726 13.3503L48.0033 12.1966L50.7726 13.3503ZM51.5543 10.1941L48.5659 10.4577L51.5543 10.1941ZM53.973 5.65376L52.6136 2.9794L53.973 5.65376ZM54.9043 5.14744L52.3881 3.51383L54.9043 5.14744ZM54.9681 5.04915L57.4843 6.68277L54.9681 5.04915ZM57.1 4.81459L57.3639 7.80296L58.4139 7.71025L58.15 4.72188L57.8861 1.7335L56.8361 1.82621L57.1 4.81459ZM58.15 4.72188L58.4139 7.71025C59.2638 7.63521 60.1091 7.49629 60.9486 7.29526L60.25 4.37774L59.5514 1.46022C58.9909 1.59443 58.4362 1.68494 57.8861 1.7335L58.15 4.72188ZM60.25 4.37774L60.9486 7.29526L61.9986 7.04382L61.3 4.1263L60.6014 1.20878L59.5514 1.46022L60.25 4.37774ZM61.3 4.1263L61.9986 7.04382L63.0486 6.79239L62.35 3.87487L61.6514 0.95735L60.6014 1.20878L61.3 4.1263ZM62.35 3.87487L63.0486 6.79239C63.4759 6.69008 63.8874 6.65334 64.2919 6.67469L64.45 3.67886L64.6081 0.683028C63.6126 0.630479 62.6241 0.724415 61.6514 0.95735L62.35 3.87487ZM64.45 3.67886L64.2919 6.67469L65.3419 6.73011L65.5 3.73428L65.6581 0.738451L64.6081 0.683028L64.45 3.67886ZM65.5 3.73428L65.3419 6.73011L66.3919 6.78553L66.55 3.7897L66.7081 0.793873L65.6581 0.738451L65.5 3.73428ZM66.55 3.7897L66.3919 6.78553C66.735 6.80364 67.109 6.88278 67.5246 7.05096L68.65 4.27006L69.7754 1.48917C68.791 1.09076 67.765 0.849659 66.7081 0.793873L66.55 3.7897ZM68.65 4.27006L67.5246 7.05096L68.5746 7.4759L69.7 4.695L70.8254 1.9141L69.7754 1.48917L68.65 4.27006ZM69.7 4.695L68.5746 7.4759L69.6246 7.90084L70.75 5.11994L71.8754 2.33904L70.8254 1.9141L69.7 4.695ZM70.75 5.11994L69.6246 7.90084C70.6679 8.32309 71.7698 8.54676 72.9077 8.51636L72.8276 5.51743L72.7475 2.5185C72.5153 2.5247 72.2321 2.48338 71.8754 2.33904L70.75 5.11994ZM72.8276 5.51743L72.9077 8.51636L73.9354 8.48891L73.8553 5.48998L73.7752 2.49105L72.7475 2.5185L72.8276 5.51743ZM73.8553 5.48998L73.9354 8.48891L74.963 8.46146L74.8829 5.46253L74.8028 2.4636L73.7752 2.49105L73.8553 5.48998ZM74.8829 5.46253L74.963 8.46146C74.9819 8.46095 74.9882 8.46218 74.9843 8.46166C74.9802 8.4611 74.9701 8.45932 74.9563 8.455C74.9425 8.45067 74.9306 8.44552 74.9221 8.44111C74.9138 8.4368 74.9133 8.43559 74.9207 8.44116L76.7178 6.03895L78.5148 3.63674C77.4245 2.82108 76.1485 2.42765 74.8028 2.4636L74.8829 5.46253ZM76.7178 6.03895L74.9207 8.44116L75.728 9.04504L77.525 6.64283L79.3221 4.24062L78.5148 3.63674L76.7178 6.03895ZM77.525 6.64283L75.728 9.04504L76.5352 9.64891L78.3322 7.2467L80.1293 4.84449L79.3221 4.24062L77.525 6.64283ZM78.3322 7.2467L76.5352 9.64891C76.4509 9.58582 76.3221 9.45639 76.2274 9.25797C76.1356 9.06545 76.129 8.91954 76.1293 8.88797L79.1291 8.91707L82.129 8.94618C82.1445 7.34432 81.4833 5.85743 80.1293 4.84449L78.3322 7.2467ZM79.1291 8.91707L76.1293 8.88797L76.1189 9.95447L79.1188 9.98357L82.1186 10.0127L82.129 8.94618L79.1291 8.91707ZM79.1188 9.98357L76.1189 9.95447L76.1086 11.021L79.1084 11.0501L82.1083 11.0792L82.1186 10.0127L79.1188 9.98357ZM79.1084 11.0501L76.1086 11.021C76.1036 11.53 76.0479 12.0355 75.9401 12.5406L78.8741 13.1666L81.808 13.7925C81.999 12.8976 82.0994 11.9922 82.1083 11.0792L79.1084 11.0501ZM78.8741 13.1666L75.9401 12.5406L75.7161 13.5906L78.65 14.2166L81.584 14.8425L81.808 13.7925L78.8741 13.1666ZM78.65 14.2166L75.7161 13.5906L75.4921 14.6406L78.426 15.2666L81.36 15.8925L81.584 14.8425L78.65 14.2166ZM78.426 15.2666L75.4921 14.6406C75.2439 15.8037 75.2741 16.9782 75.5745 18.1261L78.4768 17.3666L81.379 16.6071C81.3131 16.355 81.3094 16.1294 81.36 15.8925L78.426 15.2666ZM78.4768 17.3666L75.5745 18.1261L75.8493 19.1761L78.7515 18.4166L81.6538 17.6571L81.379 16.6071L78.4768 17.3666ZM78.7515 18.4166L75.8493 19.1761L76.124 20.2261L79.0263 19.4666L81.9286 18.7071L81.6538 17.6571L78.7515 18.4166ZM79.0263 19.4666L76.124 20.2261C76.246 20.6923 76.3049 21.1435 76.3076 21.5852L79.3076 21.5666L82.3075 21.548C82.3016 20.5896 82.1729 19.6408 81.9286 18.7071L79.0263 19.4666ZM79.3076 21.5666L76.3076 21.5852L76.3142 22.6352L79.3141 22.6166L82.314 22.598L82.3075 21.548L79.3076 21.5666ZM79.3141 22.6166L76.3142 22.6352L76.3207 23.6852L79.3206 23.6666L82.3205 23.648L82.314 22.598L79.3141 22.6166ZM79.3206 23.6666L76.3207 23.6852C76.325 24.391 76.3315 25.0969 76.34 25.8028L79.3398 25.7666L82.3396 25.7303C82.3312 25.0362 82.3248 24.3421 82.3205 23.648L79.3206 23.6666ZM79.3398 25.7666L76.34 25.8028L76.3527 26.8528L79.3525 26.8166L82.3523 26.7803L82.3396 25.7303L79.3398 25.7666ZM79.3525 26.8166L76.3527 26.8528L76.3654 27.9028L79.3652 27.8666L82.365 27.8303L82.3523 26.7803L79.3525 26.8166ZM79.3652 27.8666L76.3654 27.9028C76.3657 27.9247 76.3626 27.8772 76.3942 27.7919C76.4271 27.7033 76.474 27.6372 76.5054 27.6033L78.7068 29.6414L80.9082 31.6795C81.9126 30.5946 82.382 29.2452 82.365 27.8303L79.3652 27.8666ZM78.7068 29.6414L76.5054 27.6033L75.8343 28.3281L78.0357 30.3662L80.2371 32.4043L80.9082 31.6795L78.7068 29.6414ZM78.0357 30.3662L75.8343 28.3281L75.1633 29.053L77.3647 31.0911L79.5661 33.1292L80.2371 32.4043L78.0357 30.3662ZM77.3647 31.0911L75.1633 29.053C75.1697 29.046 75.2274 28.9877 75.3427 28.9331C75.4613 28.8768 75.5736 28.8563 75.6479 28.8535L75.7619 31.8514L75.8759 34.8492C77.3437 34.7934 78.6135 34.158 79.5661 33.1292L77.3647 31.0911ZM75.7619 31.8514L75.6479 28.8535L74.7162 28.889L74.8302 31.8868L74.9443 34.8846L75.8759 34.8492L75.7619 31.8514ZM74.8302 31.8868L74.7162 28.889L73.7845 28.9244L73.8986 31.9222L74.0126 34.9201L74.9443 34.8846L74.8302 31.8868ZM73.8986 31.9222L73.7845 28.9244C72.6994 28.9657 71.659 29.2564 70.6873 29.693L71.9169 32.4295L73.1465 35.1659C73.5748 34.9735 73.8555 34.926 74.0126 34.9201L73.8986 31.9222ZM71.9169 32.4295L70.6873 29.693L69.6373 30.1648L70.8669 32.9013L72.0965 35.6377L73.1465 35.1659L71.9169 32.4295ZM70.8669 32.9013L69.6373 30.1648L68.5873 30.6366L69.8169 33.3731L71.0465 36.1095L72.0965 35.6377L70.8669 32.9013ZM69.8169 33.3731L68.5873 30.6366C68.2677 30.7802 68.025 30.8149 67.8293 30.8076L67.7169 33.8055L67.6044 36.8034C68.8087 36.8485 69.9661 36.5949 71.0465 36.1095L69.8169 33.3731ZM67.7169 33.8055L67.8293 30.8076L66.7793 30.7682L66.6669 33.7661L66.5544 36.764L67.6044 36.8034L67.7169 33.8055ZM66.6669 33.7661L66.7793 30.7682L65.7293 30.7288L65.6169 33.7267L65.5044 36.7246L66.5544 36.764L66.6669 33.7661ZM65.6169 33.7267L65.7293 30.7288C65.4058 30.7167 65.0496 30.6447 64.6481 30.4813L63.5169 33.2598L62.3857 36.0384C63.3842 36.4449 64.428 36.6842 65.5044 36.7246L65.6169 33.7267ZM63.5169 33.2598L64.6481 30.4813L63.5981 30.0538L62.4669 32.8323L61.3357 35.6109L62.3857 36.0384L63.5169 33.2598ZM62.4669 32.8323L63.5981 30.0538L62.5481 29.6263L61.4169 32.4049L60.2857 35.1834L61.3357 35.6109L62.4669 32.8323ZM61.4169 32.4049L62.5481 29.6263C61.3521 29.1394 60.072 28.9812 58.7734 29.2204L59.3169 32.1708L59.8603 35.1211C59.9618 35.1025 60.0817 35.1004 60.2857 35.1834L61.4169 32.4049ZM59.3169 32.1708L58.7734 29.2204L57.7234 29.4138L58.2669 32.3642L58.8104 35.3146L59.8603 35.1211L59.3169 32.1708ZM58.2669 32.3642L57.7234 29.4138L56.6734 29.6072L57.2169 32.5576L57.7604 35.508L58.8104 35.3146L58.2669 32.3642ZM57.2169 32.5576L56.6734 29.6072C56.3016 29.6757 55.9579 29.6775 55.6269 29.6235L55.1447 32.5845L54.6624 35.5455C55.6944 35.7136 56.7322 35.6973 57.7604 35.508L57.2169 32.5576ZM55.1447 32.5845L55.6269 29.6235L54.6047 29.4571L54.1225 32.418L53.6402 35.379L54.6624 35.5455L55.1447 32.5845ZM54.1225 32.418L54.6047 29.4571L53.5825 29.2906L53.1002 32.2516L52.618 35.2126L53.6402 35.379L54.1225 32.418ZM53.1002 32.2516L53.5825 29.2906C53.6874 29.3077 53.8245 29.3576 53.9483 29.4476C54.0632 29.5311 54.0918 29.5944 54.0668 29.5521L51.483 31.0764L48.8991 32.6007C49.6818 33.9276 50.936 34.9386 52.618 35.2126L53.1002 32.2516ZM51.483 31.0764L54.0668 29.5521L53.4718 28.5434L50.8879 30.0677L48.304 31.592L48.8991 32.6007L51.483 31.0764ZM50.8879 30.0677L53.4718 28.5434L52.8767 27.5347L50.2928 29.059L47.709 30.5833L48.304 31.592L50.8879 30.0677ZM50.2928 29.059L52.8767 27.5347C52.8549 27.4977 52.8833 27.5338 52.8968 27.632C52.9031 27.6781 52.9042 27.725 52.9006 27.7688C52.897 27.8122 52.8897 27.8422 52.8856 27.856L50.0102 27.0003L47.1348 26.1447C46.6709 27.7039 46.9213 29.2481 47.709 30.5833L50.2928 29.059ZM50.0102 27.0003L52.8856 27.856L53.1981 26.806L50.3227 25.9503L47.4473 25.0947L47.1348 26.1447L50.0102 27.0003ZM50.3227 25.9503L53.1981 26.806L53.5105 25.756L50.6351 24.9003L47.7597 24.0447L47.4473 25.0947L50.3227 25.9503ZM50.6351 24.9003L53.5105 25.756C53.8364 24.6607 53.9318 23.5303 53.7758 22.3927L50.8036 22.8003L47.8314 23.2079C47.8674 23.4704 47.8504 23.7399 47.7597 24.0447L50.6351 24.9003ZM50.8036 22.8003L53.7758 22.3927L53.6318 21.3427L50.6596 21.7503L47.6874 22.1579L47.8314 23.2079L50.8036 22.8003ZM50.6596 21.7503L53.6318 21.3427L53.4878 20.2927L50.5156 20.7003L47.5434 21.1079L47.6874 22.1579L50.6596 21.7503ZM50.5156 20.7003L53.4878 20.2927C53.395 19.6164 53.3105 18.9401 53.2342 18.264L50.2531 18.6003L47.272 18.9367C47.3537 19.6606 47.4442 20.3843 47.5434 21.1079L50.5156 20.7003ZM50.2531 18.6003L53.2342 18.264L53.1157 17.214L50.1346 17.5503L47.1535 17.8867L47.272 18.9367L50.2531 18.6003ZM50.1346 17.5503L53.1157 17.214L52.9972 16.164L50.0161 16.5003L47.0351 16.8367L47.1535 17.8867L50.1346 17.5503ZM50.0161 16.5003L52.9972 16.164C52.9797 16.0091 52.9934 15.8205 53.1044 15.5541L50.3351 14.4003L47.5658 13.2466C47.0936 14.3802 46.8946 15.5916 47.0351 16.8367L50.0161 16.5003ZM50.3351 14.4003L53.1044 15.5541L53.5418 14.5041L50.7726 13.3503L48.0033 12.1966L47.5658 13.2466L50.3351 14.4003ZM50.7726 13.3503L53.5418 14.5041L53.9793 13.4541L51.21 12.3003L48.4407 11.1466L48.0033 12.1966L50.7726 13.3503ZM51.21 12.3003L53.9793 13.4541C54.4435 12.3397 54.6505 11.1527 54.5427 9.93045L51.5543 10.1941L48.5659 10.4577C48.5823 10.6438 48.5597 10.861 48.4407 11.1466L51.21 12.3003ZM51.5543 10.1941L54.5427 9.93045L54.4495 8.87417L51.4611 9.1378L48.4727 9.40142L48.5659 10.4577L51.5543 10.1941ZM51.4611 9.1378L54.4495 8.87417L54.3563 7.8179L51.3679 8.08152L48.3795 8.34515L48.4727 9.40142L51.4611 9.1378ZM51.3679 8.08152L54.3563 7.8179C54.3642 7.90754 54.368 8.21493 54.1706 8.58552C53.967 8.96774 53.6831 9.1664 53.5335 9.24244L52.1741 6.56808L50.8148 3.89373C50.0656 4.27455 49.3475 4.87783 48.8751 5.76454C48.409 6.6396 48.3095 7.55132 48.3795 8.34515L51.3679 8.08152ZM52.1741 6.56808L53.5335 9.24244L54.4329 8.78527L53.0735 6.11092L51.7142 3.43657L50.8148 3.89373L52.1741 6.56808ZM53.0735 6.11092L54.4329 8.78527L55.3323 8.32811L53.973 5.65376L52.6136 2.9794L51.7142 3.43657L53.0735 6.11092ZM53.973 5.65376L55.3323 8.32811C55.639 8.1722 55.896 8.03885 56.0884 7.93428C56.18 7.88445 56.2889 7.82393 56.3918 7.76141C56.4392 7.73264 56.5267 7.67852 56.6253 7.60811C56.6734 7.57382 56.7607 7.50977 56.8618 7.42218C56.9174 7.37395 57.1823 7.14795 57.4205 6.78106L54.9043 5.14744L52.3881 3.51383C52.5231 3.3058 52.6559 3.15864 52.7302 3.08071C52.812 2.99491 52.8839 2.92985 52.932 2.88818C53.0259 2.80681 53.1038 2.75005 53.1402 2.7241C53.2154 2.67039 53.2705 2.63721 53.2764 2.63363C53.2964 2.6215 53.2862 2.62836 53.2226 2.66291C53.1045 2.72712 52.9065 2.83054 52.6136 2.9794L53.973 5.65376ZM54.9043 5.14744L57.4205 6.78106L57.4524 6.73192L54.9362 5.0983L52.42 3.46468L52.3881 3.51383L54.9043 5.14744ZM54.9362 5.0983L57.4524 6.73192L57.4843 6.68277L54.9681 5.04915L52.4519 3.41553L52.42 3.46468L54.9362 5.0983ZM54.9681 5.04915L57.4843 6.68277C57.2538 7.03775 56.997 7.26834 56.8346 7.39707C56.6639 7.53235 56.5102 7.62354 56.4075 7.67932C56.208 7.78763 56.041 7.84792 55.9653 7.87391C55.8066 7.92834 55.686 7.95325 55.6631 7.95804C55.5979 7.97171 55.5774 7.97245 55.6445 7.96365C55.7605 7.94845 55.9749 7.92559 56.3139 7.89567L56.05 4.90729L55.7861 1.91892C55.4251 1.9508 55.1092 1.98248 54.8645 2.01457C54.7513 2.02941 54.5929 2.05199 54.4322 2.08566C54.3616 2.10046 54.2039 2.13492 54.0187 2.19845C53.9297 2.22899 53.7521 2.29371 53.5446 2.40635C53.4175 2.47539 52.8706 2.77063 52.4519 3.41553L54.9681 5.04915ZM56.05 4.90729L56.3139 7.89567L57.3639 7.80296L57.1 4.81459L56.8361 1.82621L55.7861 1.91892L56.05 4.90729Z" fill="#33363D"/>
<path d="M200.617 0.687431L201.648 0.734306L202.703 0.804619C203.759 0.860378 204.79 1.08677 205.773 1.48431L207.883 2.32806C208.238 2.47142 208.518 2.52174 208.75 2.51556L210.813 2.46868C211.482 2.45183 212.137 2.53126 212.758 2.72649L214.516 3.64056L215.313 4.24993L216.133 4.83587C217.484 5.84698 218.138 7.33902 218.125 8.93743V10.0156L218.102 11.0702C218.093 11.9828 217.988 12.8945 217.797 13.789L217.586 14.8437L217.352 15.8984C217.303 16.1306 217.311 16.3545 217.375 16.6015L217.938 18.7109C218.181 19.6423 218.306 20.5909 218.313 21.5468V23.6562C218.317 24.3436 218.328 25.0313 218.336 25.7187L218.359 26.7734V27.8281C218.376 29.2414 217.909 30.5875 216.906 31.6718L216.227 32.3984L215.57 33.1249C214.618 34.1537 213.335 34.8034 211.867 34.8593L210.953 34.8827L210.016 34.9296C209.859 34.9356 209.575 34.9725 209.148 35.164L207.039 36.1015C205.96 36.5859 204.797 36.8497 203.594 36.8046L202.563 36.7577L201.508 36.7343C200.432 36.694 199.388 36.4372 198.391 36.0312L196.281 35.1874C196.079 35.1055 195.96 35.0986 195.859 35.1171L194.805 35.3046L193.75 35.5156C192.726 35.7029 191.684 35.7064 190.656 35.539L189.648 35.3749L188.617 35.2109C186.937 34.9369 185.673 33.9344 184.891 32.6093L183.719 30.5937C182.931 29.2585 182.669 27.6997 183.133 26.1406L183.438 25.0859L183.766 24.0546C183.856 23.7514 183.871 23.4721 183.836 23.2109L183.555 21.1015C183.456 20.3824 183.355 19.6645 183.273 18.9452L183.039 16.8359C182.899 15.5934 183.085 14.3814 183.555 13.2499L184.445 11.1406C184.561 10.8599 184.578 10.6448 184.563 10.4609L184.375 8.35149C184.305 7.56077 184.406 6.6453 184.867 5.77337C185.339 4.88813 186.065 4.27929 186.813 3.89837L187.703 3.42962L188.617 2.98431C188.803 2.88993 188.95 2.80701 189.063 2.74407C189.293 2.54744 189.485 2.436 189.555 2.39837C189.757 2.28948 189.936 2.21741 190.023 2.18743C190.196 2.12885 190.348 2.10942 190.422 2.09368C190.582 2.06005 190.754 2.0382 190.867 2.02337C191.11 1.99154 191.424 1.96125 191.781 1.92962L193.891 1.74212C194.439 1.69347 194.996 1.59475 195.555 1.46087L196.609 1.20306L197.641 0.968681C198.613 0.7358 199.622 0.634888 200.617 0.687431ZM209.847 12.5859C208.976 11.8048 207.566 11.8048 206.695 12.5859L198.242 20.1718L194.804 17.0859L194.635 16.9482C193.759 16.3075 192.468 16.3537 191.652 17.0859C190.782 17.8669 190.782 19.133 191.652 19.914L196.667 24.414C197.537 25.1948 198.949 25.1949 199.819 24.414L209.847 15.414C210.717 14.633 210.717 13.3669 209.847 12.5859Z" fill="#5D5FEF"/>
</svg>
