<svg width="16" height="16" viewBox="0 0 16 16" fill="none" xmlns="http://www.w3.org/2000/svg">
<path d="M6.2052 9.7949L9.43597 6.56413M12.7409 4.59245L10.0138 13.4555C9.76939 14.2498 9.6471 14.6471 9.43632 14.7788C9.25348 14.8931 9.02711 14.9122 8.82798 14.8295C8.59837 14.7343 8.41201 14.3622 8.04025 13.6187L6.31294 10.1641C6.25395 10.0461 6.22442 9.98732 6.18501 9.9362C6.15004 9.89083 6.10969 9.84996 6.06432 9.81499C6.01436 9.77648 5.95659 9.7476 5.84387 9.69124L2.3813 7.95996C1.63777 7.58819 1.26596 7.40214 1.17069 7.17253C1.08807 6.9734 1.10691 6.74682 1.22115 6.56398C1.35287 6.35316 1.75018 6.23068 2.54471 5.98621L11.4078 3.25912C12.0324 3.06692 12.3449 2.9709 12.5558 3.04835C12.7396 3.11582 12.8845 3.26056 12.952 3.44434C13.0294 3.65522 12.9333 3.96751 12.7413 4.59153L12.7409 4.59245Z" stroke="white" stroke-width="1.5" stroke-linecap="round" stroke-linejoin="round"/>
</svg>
