<svg width="24" height="24" viewBox="0 0 24 24" fill="none" xmlns="http://www.w3.org/2000/svg">
<path d="M12 3C16.9706 3 21 7.02944 21 12C21 16.9706 16.9706 21 12 21C7.02944 21 3 16.9706 3 12C3 7.02944 7.02944 3 12 3ZM12 13.9062C11.4823 13.9062 11.0562 14.2996 11.0049 14.8037L11 14.9062V15.0049C11.0002 15.5546 11.4444 16.0015 11.9941 16.0049H12.0566C12.3228 16.0064 12.5788 15.9015 12.7676 15.7139C12.9563 15.5262 13.0625 15.271 13.0625 15.0049V14.9062C13.0625 14.3886 12.6691 13.9625 12.165 13.9111L12.0625 13.9062H12ZM12.0312 7C11.479 7 11.0312 7.44772 11.0312 8V11.9463C11.0312 12.4986 11.479 12.9463 12.0312 12.9463C12.5835 12.9462 13.0312 12.4985 13.0312 11.9463V8C13.0312 7.44774 12.5835 7.00004 12.0312 7Z" fill="#EA3429"/>
</svg>
