<svg width="80" height="80" viewBox="0 0 80 80" fill="none" xmlns="http://www.w3.org/2000/svg">
<rect width="80" height="80" rx="40" fill="#FFE5F6"/>
<rect x="18" y="6" width="45" height="30" rx="15" fill="#FF52C3"/>
<circle cx="26.5602" cy="47.8479" r="7.84791" fill="#F3F4F5"/>
<circle cx="54.8126" cy="47.8479" r="7.84791" fill="#F3F4F5"/>
<ellipse cx="40.6866" cy="59.6204" rx="23.5437" ry="14.1262" fill="#FAFAFA"/>
<path d="M35.193 56.0873C35.193 55.4372 35.72 54.9102 36.3702 54.9102C37.0203 54.9102 37.5474 55.4372 37.5474 56.0873V58.8341H35.193V56.0873Z" fill="#2B2B3C"/>
<rect x="35.3137" y="55.5742" width="1.29792" height="1.29792" rx="0.648962" fill="#FAFAFA"/>
<path d="M43.7502 56.0873C43.7502 55.4372 44.2773 54.9102 44.9274 54.9102C45.5776 54.9102 46.1046 55.4372 46.1046 56.0873V58.8341H43.7502V56.0873Z" fill="#2B2B3C"/>
<rect x="43.871" y="55.5742" width="1.29792" height="1.29792" rx="0.648962" fill="#FAFAFA"/>
<rect x="42.2561" y="58.0508" width="2.35437" height="3.92396" rx="1.17719" transform="rotate(90 42.2561 58.0508)" fill="#2B2B3C"/>
<path d="M36 61.7134C36.8999 62.3398 39.2715 62.4344 40.4162 59.4277C40.9669 60.3339 42.9192 62.6705 44.5714 61.9992" stroke="#2B2B3C" stroke-width="1.15172" stroke-linecap="round" stroke-linejoin="round"/>
<g opacity="0.5" filter="url(#filter0_f_54393_6774)">
<circle cx="27.0875" cy="60.6818" r="4.7619" fill="#FBD7CC"/>
</g>
<g opacity="0.5" filter="url(#filter1_f_54393_6774)">
<circle cx="53.7542" cy="60.6818" r="4.7619" fill="#FBD7CC"/>
</g>
<path d="M39.2148 39.5232L37.0153 35.7137C36.6488 35.0788 37.107 34.2852 37.8401 34.2852H42.239C42.9721 34.2852 43.4303 35.0788 43.0638 35.7137L40.8643 39.5233C40.4978 40.1582 39.5813 40.1582 39.2148 39.5232Z" fill="#FF52C3"/>
<path d="M36.2331 22.1174V26.4374H25.3989V22.1174H36.2331ZM28.4571 17.4408C29.1154 17.4408 29.6777 17.4957 30.1577 17.5917C30.624 17.7014 31.0217 17.8386 31.3234 18.0168C31.6251 18.2088 31.8446 18.442 31.9954 18.7026C32.1326 18.9768 32.2011 19.2648 32.2011 19.5803C32.2011 19.9094 32.1326 20.2111 31.9954 20.4717C31.8446 20.746 31.6251 20.9654 31.3234 21.1437C31.0217 21.3357 30.624 21.4728 30.1577 21.5688C29.6777 21.6786 29.1154 21.7197 28.4571 21.7197C27.7989 21.7197 27.2229 21.6786 26.7566 21.5688C26.2766 21.4728 25.8926 21.3357 25.5909 21.1437C25.2891 20.9654 25.0697 20.746 24.9326 20.4717C24.7817 20.2111 24.7131 19.9094 24.7131 19.5803C24.7131 19.2648 24.7817 18.9768 24.9326 18.7026C25.0697 18.442 25.2891 18.2088 25.5909 18.0168C25.8926 17.8386 26.2766 17.7014 26.7566 17.5917C27.2229 17.4957 27.7989 17.4408 28.4571 17.4408ZM36.2331 14.5608V21.6374H33.3943V14.5608H36.2331ZM29.8697 14.9723H32.5303V17.0568H24.3703V14.9723H27.0309V14.0397H29.8697V14.9723ZM28.2377 23.9826V24.5723H33.3943V23.9826H28.2377ZM28.4571 19.0317C28.1417 19.0317 27.8949 19.0866 27.7303 19.1688C27.5383 19.2786 27.456 19.4157 27.456 19.5803C27.456 19.7586 27.5383 19.8957 27.7303 19.9917C27.8949 20.1014 28.1417 20.1426 28.4571 20.1426C28.7589 20.1426 29.0057 20.1014 29.1977 19.9917C29.3623 19.9094 29.4583 19.7723 29.4583 19.5803C29.4583 19.402 29.3623 19.2648 29.184 19.1688C28.992 19.0866 28.7589 19.0317 28.4571 19.0317ZM44.7629 26.1631V14.5608H47.4235V18.9494L48.1503 18.7026V14.5608H50.8246V26.1631H48.1503V21.2946L47.4235 21.5414V26.1631H44.7629ZM40.5115 23.6671H44.1457V26.026H37.8509V14.8351H40.5115V23.6671ZM52.3821 22.9951V14.6706H55.221V22.9951H52.3821ZM52.3821 26.4374V23.7357H55.221V26.4374H52.3821Z" fill="white"/>
<defs>
<filter id="filter0_f_54393_6774" x="18.516" y="52.1104" width="17.1429" height="17.1425" filterUnits="userSpaceOnUse" color-interpolation-filters="sRGB">
<feFlood flood-opacity="0" result="BackgroundImageFix"/>
<feBlend mode="normal" in="SourceGraphic" in2="BackgroundImageFix" result="shape"/>
<feGaussianBlur stdDeviation="1.90476" result="effect1_foregroundBlur_54393_6774"/>
</filter>
<filter id="filter1_f_54393_6774" x="45.1828" y="52.1104" width="17.1429" height="17.1425" filterUnits="userSpaceOnUse" color-interpolation-filters="sRGB">
<feFlood flood-opacity="0" result="BackgroundImageFix"/>
<feBlend mode="normal" in="SourceGraphic" in2="BackgroundImageFix" result="shape"/>
<feGaussianBlur stdDeviation="1.90476" result="effect1_foregroundBlur_54393_6774"/>
</filter>
</defs>
</svg>
